<svg id="Layer_1" xmlns="http://www.w3.org/2000/svg" xmlns:xlink="http://www.w3.org/1999/xlink" viewBox="0 0 320 80"><style>.st7{clip-path:url(#SVGID_14_)}</style><defs><path id="SVGID_1_" d="M125.7 52.5H8.2V10.9c0-1.9 1.5-3.4 3.4-3.4h114.1v45z"/></defs><clipPath id="SVGID_2_"><use xlink:href="#SVGID_1_" overflow="visible"/></clipPath><g clip-path="url(#SVGID_2_)"><defs><path id="SVGID_3_" d="M-131.8-5.5h1440v3399h-1440z"/></defs><clipPath id="SVGID_4_"><use xlink:href="#SVGID_3_" overflow="visible"/></clipPath><path clip-path="url(#SVGID_4_)" fill="#daeeeb" d="M3.2 2.5h127.5v55H3.2z"/></g><path fill="none" stroke="#414042" stroke-width="3" stroke-linecap="round" stroke-linejoin="round" stroke-miterlimit="10" d="M15.3 14.1h115.1v42.8H49.7L34.8 70.6V56H15.3z"/><defs><path id="SVGID_5_" d="M32.5 42.5c.7 0 1.3-.1 1.8-.2s.8-.3 1.1-.5c.3-.2.5-.4.6-.7.1-.3.2-.6.2-.9 0-.7-.3-1.3-1-1.8s-1.9-1-3.5-1.6c-.7-.3-1.5-.6-2.2-.9-.7-.3-1.4-.8-2-1.3-.6-.5-1.1-1.1-1.4-1.8-.4-.7-.5-1.6-.5-2.6s.2-2 .6-2.8c.4-.8.9-1.5 1.6-2.1.7-.6 1.6-1 2.6-1.3 1-.3 2.1-.5 3.4-.5 1.5 0 2.8.2 3.9.5s2 .7 2.7 1.1l-1.4 4c-.6-.3-1.3-.6-2.1-.9-.8-.2-1.7-.4-2.8-.4-1.2 0-2.1.2-2.6.5s-.8.8-.8 1.5c0 .4.1.8.3 1 .2.3.5.5.8.8l1.2.6 1.5.6c1.2.4 2.2.9 3 1.3.9.4 1.6.9 2.1 1.5.6.6 1 1.2 1.3 2 .3.8.4 1.7.4 2.7 0 2.1-.7 3.7-2.2 4.9-1.5 1.2-3.7 1.7-6.6 1.7-1 0-1.9-.1-2.7-.2-.8-.1-1.5-.3-2.1-.4-.6-.2-1.1-.4-1.6-.5-.4-.2-.8-.4-1.1-.5l1.4-4c.7.4 1.5.7 2.5 1 1 0 2.1.2 3.6.2"/></defs><clipPath id="SVGID_6_"><use xlink:href="#SVGID_5_" overflow="visible"/></clipPath><g clip-path="url(#SVGID_6_)"><defs><path id="SVGID_7_" d="M-131.8-5.5h1440v3399h-1440z"/></defs><clipPath id="SVGID_8_"><use xlink:href="#SVGID_7_" overflow="visible"/></clipPath><path clip-path="url(#SVGID_8_)" fill="#414042" d="M20 18.4h26.2v33.3H20z"/></g><defs><path id="SVGID_9_" d="M8.2 7.5h303.5v65H8.2z"/></defs><clipPath id="SVGID_10_"><use xlink:href="#SVGID_9_" overflow="visible"/></clipPath><g clip-path="url(#SVGID_10_)"><defs><path id="SVGID_11_" d="M-131.8-5.5h1440v3399h-1440z"/></defs><clipPath id="SVGID_12_"><use xlink:href="#SVGID_11_" overflow="visible"/></clipPath><g clip-path="url(#SVGID_12_)"><defs><path id="SVGID_13_" d="M42.2 20.5h270v32h-270z"/></defs><clipPath id="SVGID_14_"><use xlink:href="#SVGID_13_" overflow="visible"/></clipPath><g class="st7"><defs><path id="SVGID_15_" d="M48.8 24.4c0 .9-.3 1.6-.9 2.1-.6.5-1.2.8-2 .8s-1.4-.3-2-.8c-.6-.5-.9-1.2-.9-2.1 0-.9.3-1.6.9-2.1.6-.5 1.2-.8 2-.8s1.4.3 2 .8c.6.6.9 1.3.9 2.1zm-5.2 21.9h4.8v-17h-4.8v17z"/></defs><clipPath id="SVGID_16_"><use xlink:href="#SVGID_15_" overflow="visible"/></clipPath><g clip-path="url(#SVGID_16_)"><defs><path id="SVGID_17_" d="M8.2 7.5h304v65H8.2z"/></defs><clipPath id="SVGID_18_"><use xlink:href="#SVGID_17_" overflow="visible"/></clipPath><path clip-path="url(#SVGID_18_)" fill="#414042" d="M38.1 16.6h15.7v34.7H38.1z"/></g></g><g class="st7"><defs><path id="SVGID_19_" d="M61 37.3c0-1.6-.2-2.6-.6-3.3-.4-.6-1.1-1-2-1h-.9c-.3 0-.6.1-.9.1v13.1h-4.8V29.9c.4-.1.9-.2 1.4-.3.5-.1 1.1-.2 1.7-.3.6-.1 1.2-.2 1.9-.2.6-.1 1.2-.1 1.8-.1 1.2 0 2.2.2 3 .5.8.3 1.4.7 1.9 1.1.7-.5 1.5-.9 2.4-1.2.9-.3 1.7-.4 2.5-.4 1.4 0 2.5.2 3.3.6.9.4 1.6.9 2.1 1.6.5.7.9 1.5 1.1 2.5.2.9.3 2 .3 3.2v9.6h-4.8v-9c0-1.6-.2-2.6-.6-3.3-.4-.6-1.1-1-2-1-.3 0-.6.1-1.1.2-.5.1-.8.3-1.1.5.1.5.2 1 .3 1.6 0 .5.1 1.1.1 1.8v9.3h-5v-9.3z"/></defs><clipPath id="SVGID_20_"><use xlink:href="#SVGID_19_" overflow="visible"/></clipPath><g clip-path="url(#SVGID_20_)"><defs><path id="SVGID_21_" d="M8.2 7.5h304v65H8.2z"/></defs><clipPath id="SVGID_22_"><use xlink:href="#SVGID_21_" overflow="visible"/></clipPath><path clip-path="url(#SVGID_22_)" fill="#414042" d="M46.7 24h33.4v27.4H46.7z"/></g></g><g class="st7"><defs><path id="SVGID_23_" d="M93.9 37.8c0 1.3-.2 2.5-.5 3.6s-.8 2-1.4 2.8c-.6.8-1.4 1.4-2.3 1.8-.9.4-2 .6-3.2.6-.7 0-1.3-.1-1.9-.2-.6-.1-1.1-.3-1.7-.5v6.4h-4.8V29.9c.4-.1.9-.3 1.5-.4.6-.1 1.1-.2 1.8-.3.6-.1 1.2-.2 1.9-.2.6-.1 1.2-.1 1.8-.1 1.4 0 2.6.2 3.7.6 1.1.4 2 1 2.8 1.8.7.8 1.3 1.7 1.7 2.8.4 1.2.6 2.4.6 3.7M89 38c0-1.5-.3-2.7-1-3.6-.7-.9-1.7-1.3-3-1.3h-1.2c-.4 0-.7.1-.9.1v8.7c.3.2.7.4 1.2.5.5.1 1 .2 1.5.2 2.3 0 3.4-1.6 3.4-4.6"/></defs><clipPath id="SVGID_24_"><use xlink:href="#SVGID_23_" overflow="visible"/></clipPath><g clip-path="url(#SVGID_24_)"><defs><path id="SVGID_25_" d="M8.2 7.5h304v65H8.2z"/></defs><clipPath id="SVGID_26_"><use xlink:href="#SVGID_25_" overflow="visible"/></clipPath><path clip-path="url(#SVGID_26_)" fill="#414042" d="M73.2 24h25.7v33.3H73.2z"/></g></g><g class="st7"><defs><path id="SVGID_27_" d="M103.5 46.7c-1.4 0-2.5-.2-3.4-.5-.9-.3-1.6-.7-2.1-1.2s-.8-1.1-1-1.8c-.2-.7-.3-1.5-.3-2.4V22l4.8-.8v18.5c0 .4 0 .8.1 1.2.1.3.2.6.4.9.2.2.4.4.8.6.3.2.8.2 1.4.3l-.7 4z"/></defs><clipPath id="SVGID_28_"><use xlink:href="#SVGID_27_" overflow="visible"/></clipPath><g clip-path="url(#SVGID_28_)"><defs><path id="SVGID_29_" d="M8.2 7.5h304v65H8.2z"/></defs><clipPath id="SVGID_30_"><use xlink:href="#SVGID_29_" overflow="visible"/></clipPath><path clip-path="url(#SVGID_30_)" fill="#414042" d="M91.7 16.3h17.4v35.4H91.7z"/></g></g><g class="st7"><defs><path id="SVGID_31_" d="M105.9 38c0-1.5.2-2.8.7-4 .5-1.1 1.1-2.1 1.8-2.8.8-.8 1.6-1.3 2.6-1.7 1-.4 2-.6 3-.6 2.4 0 4.3.7 5.7 2.2 1.4 1.5 2.1 3.6 2.1 6.5v.9c0 .3 0 .6-.1.9h-10.9c.1 1 .6 1.8 1.4 2.4.8.6 1.9.9 3.3.9.9 0 1.7-.1 2.6-.2.8-.2 1.5-.4 2.1-.6l.6 3.9c-.3.1-.6.3-1 .4-.4.1-.9.2-1.4.3-.5.1-1.1.2-1.7.2-.6.1-1.2.1-1.8.1-1.5 0-2.8-.2-4-.7-1.1-.5-2.1-1.1-2.8-1.9-.7-.8-1.3-1.7-1.6-2.8-.4-1-.6-2.2-.6-3.4zm11.2-1.9c0-.4-.1-.8-.2-1.2-.1-.4-.3-.7-.5-1-.2-.3-.6-.5-.9-.7-.4-.2-.8-.3-1.4-.3-.5 0-1 .1-1.4.3-.4.2-.7.4-1 .7-.3.3-.5.7-.6 1l-.3 1.2h6.3z"/></defs><clipPath id="SVGID_32_"><use xlink:href="#SVGID_31_" overflow="visible"/></clipPath><g clip-path="url(#SVGID_32_)"><defs><path id="SVGID_33_" d="M8.2 7.5h304v65H8.2z"/></defs><clipPath id="SVGID_34_"><use xlink:href="#SVGID_33_" overflow="visible"/></clipPath><path clip-path="url(#SVGID_34_)" fill="#414042" d="M100.9 23.9h25.9v27.9h-25.9z"/></g></g><g class="st7"><defs><path id="SVGID_35_" d="M158.1 35.1c0 2-.3 3.7-.9 5.1-.6 1.5-1.5 2.7-2.6 3.7s-2.4 1.7-4 2.2c-1.5.5-3.2.7-5.1.7-.9 0-1.9-.1-2.9-.1-1-.1-1.9-.3-2.7-.5V24c.8-.2 1.7-.4 2.7-.5 1-.1 2-.1 2.9-.1 1.9 0 3.6.2 5.1.7 1.5.5 2.9 1.2 4 2.2 1.1 1 2 2.2 2.6 3.7.6 1.4.9 3.1.9 5.1zm-16 9.5c.1 0 .5.1 1 .1.5.1 1.4.1 2.6.1 1.7 0 3.1-.2 4.3-.7 1.2-.5 2.3-1.1 3.1-1.9.8-.8 1.5-1.9 1.9-3.1.4-1.2.6-2.6.6-4.1 0-1.5-.2-2.9-.6-4.1-.4-1.2-1-2.2-1.9-3.1-.8-.8-1.9-1.5-3.1-1.9-1.2-.5-2.7-.7-4.3-.7-1.2 0-2.1 0-2.6.1s-.9.1-1 .1v19.2z"/></defs><clipPath id="SVGID_36_"><use xlink:href="#SVGID_35_" overflow="visible"/></clipPath><g clip-path="url(#SVGID_36_)"><defs><path id="SVGID_37_" d="M8.2 7.5h304v65H8.2z"/></defs><clipPath id="SVGID_38_"><use xlink:href="#SVGID_37_" overflow="visible"/></clipPath><path clip-path="url(#SVGID_38_)" fill="#414042" d="M134.9 18.4h28.2v33.4h-28.2z"/></g></g><g class="st7"><defs><path id="SVGID_39_" d="M160.7 38c0-1.5.2-2.8.6-3.9.4-1.1 1-2.1 1.7-2.8.7-.8 1.5-1.3 2.4-1.7.9-.4 1.8-.5 2.8-.5 2.1 0 3.8.7 5 2.1 1.2 1.4 1.9 3.5 1.9 6.3v1h-12c.1 2.1.6 3.7 1.6 4.8 1 1.1 2.5 1.7 4.6 1.7 1.2 0 2.1-.1 2.8-.3.7-.2 1.2-.4 1.5-.6l.4 1.9c-.3.2-.9.4-1.7.6-.8.2-1.8.4-3 .4-1.5 0-2.8-.2-3.8-.7-1.1-.4-1.9-1.1-2.6-1.9-.7-.8-1.2-1.7-1.5-2.8-.5-1.1-.7-2.3-.7-3.6zm12.1-1.4c0-1.8-.5-3.2-1.3-4.2s-1.9-1.5-3.4-1.5c-.8 0-1.5.2-2.1.5-.6.3-1.1.7-1.6 1.2s-.8 1.1-1.1 1.8c-.3.7-.4 1.4-.4 2.2h9.9z"/></defs><clipPath id="SVGID_40_"><use xlink:href="#SVGID_39_" overflow="visible"/></clipPath><g clip-path="url(#SVGID_40_)"><defs><path id="SVGID_41_" d="M8.2 7.5h304v65H8.2z"/></defs><clipPath id="SVGID_42_"><use xlink:href="#SVGID_41_" overflow="visible"/></clipPath><path clip-path="url(#SVGID_42_)" fill="#414042" d="M155.7 24h24.4v27.9h-24.4z"/></g></g><g class="st7"><defs><path id="SVGID_43_" d="M179.5 30.5c.4-.3 1-.6 1.8-.9.8-.3 1.8-.5 2.9-.5 1.2 0 2.3.2 3.3.7 1 .4 1.8 1.1 2.4 1.9.7.8 1.2 1.7 1.5 2.8.3 1.1.5 2.3.5 3.6 0 1.4-.2 2.6-.6 3.8-.4 1.1-1 2-1.7 2.8-.7.8-1.6 1.4-2.6 1.8-1 .4-2.2.6-3.4.6-1.5 0-2.8-.1-3.8-.3-1-.2-1.8-.4-2.4-.6v-25l2.2-.4v9.7zm0 14.1c.3.1.8.2 1.5.3.7.1 1.5.2 2.6.2 1.9 0 3.3-.6 4.5-1.8 1.1-1.2 1.7-2.9 1.7-5.2 0-1-.1-1.9-.3-2.7-.2-.9-.5-1.6-1-2.2-.4-.6-1-1.1-1.7-1.5-.7-.4-1.6-.6-2.7-.6-.5 0-1 .1-1.5.2s-.9.2-1.3.4-.7.3-1 .5c-.3.2-.5.3-.7.5v11.9z"/></defs><clipPath id="SVGID_44_"><use xlink:href="#SVGID_43_" overflow="visible"/></clipPath><g clip-path="url(#SVGID_44_)"><defs><path id="SVGID_45_" d="M8.2 7.5h304v65H8.2z"/></defs><clipPath id="SVGID_46_"><use xlink:href="#SVGID_45_" overflow="visible"/></clipPath><path clip-path="url(#SVGID_46_)" fill="#414042" d="M172.4 15.8H197V52h-24.6z"/></g></g><g class="st7"><defs><path id="SVGID_47_" d="M197.5 29.4h6.8v1.8h-6.8v9.1c0 1 .1 1.8.2 2.4.2.6.4 1.1.7 1.4.3.3.7.6 1.1.7.5.2 1 .2 1.5.2.9 0 1.6-.1 2.2-.3.6-.2 1-.4 1.3-.6l.5 1.8c-.3.2-.8.4-1.6.7-.8.3-1.6.4-2.5.4-1.1 0-1.9-.1-2.7-.4-.7-.3-1.3-.7-1.7-1.3-.4-.6-.7-1.3-.9-2.1-.2-.8-.3-1.8-.3-3V24.4l2.2-.4v5.4z"/></defs><clipPath id="SVGID_48_"><use xlink:href="#SVGID_47_" overflow="visible"/></clipPath><g clip-path="url(#SVGID_48_)"><defs><path id="SVGID_49_" d="M8.2 7.5h304v65H8.2z"/></defs><clipPath id="SVGID_50_"><use xlink:href="#SVGID_49_" overflow="visible"/></clipPath><path clip-path="url(#SVGID_50_)" fill="#414042" d="M190.3 19H210v33h-19.7z"/></g></g><g class="st7"><defs><path id="SVGID_51_" d="M229.3 46.6l-1.2-3.3c-.4-1-.7-2.1-1.1-3h-11.2c-.4 1-.8 2-1.1 3.1-.4 1-.8 2.1-1.2 3.3h-2.4c.9-2.4 1.7-4.6 2.5-6.7.8-2.1 1.5-4 2.3-5.9.7-1.8 1.5-3.6 2.2-5.3.7-1.7 1.5-3.4 2.3-5.1h2c.8 1.7 1.6 3.4 2.3 5.1.7 1.7 1.5 3.5 2.2 5.3.7 1.8 1.5 3.8 2.3 5.9.8 2.1 1.6 4.3 2.5 6.7h-2.4zm-7.9-20.4c-.8 1.9-1.6 3.9-2.4 5.8-.8 2-1.6 4.1-2.4 6.4h9.8c-.8-2.3-1.7-4.4-2.5-6.4s-1.7-3.9-2.5-5.8z"/></defs><clipPath id="SVGID_52_"><use xlink:href="#SVGID_51_" overflow="visible"/></clipPath><g clip-path="url(#SVGID_52_)"><defs><path id="SVGID_53_" d="M8.2 7.5h304v65H8.2z"/></defs><clipPath id="SVGID_54_"><use xlink:href="#SVGID_53_" overflow="visible"/></clipPath><path clip-path="url(#SVGID_54_)" fill="#414042" d="M206.2 18.6h30.6v33h-30.6z"/></g></g><g class="st7"><defs><path id="SVGID_55_" d="M247.3 46.1c-.6.2-1.5.4-2.4.6-1 .2-2.3.3-3.8.3-1.3 0-2.4-.2-3.4-.6-1-.4-1.9-1-2.6-1.8-.7-.8-1.3-1.7-1.7-2.8-.4-1.1-.6-2.4-.6-3.8 0-1.3.2-2.5.5-3.6s.8-2 1.5-2.8c.7-.8 1.5-1.4 2.4-1.9 1-.4 2.1-.7 3.3-.7 1.1 0 2.1.2 2.9.5.8.3 1.4.6 1.8.9v-9.2l2.2-.4v25.3zm-2.2-13.5c-.2-.2-.4-.3-.7-.5-.3-.2-.6-.3-1-.5s-.8-.3-1.3-.4c-.5-.1-.9-.2-1.5-.2-1.1 0-1.9.2-2.7.6-.7.4-1.3.9-1.7 1.5-.4.6-.8 1.4-1 2.2-.2.9-.3 1.8-.3 2.7 0 2.3.6 4 1.7 5.2 1.1 1.2 2.6 1.8 4.5 1.8 1.1 0 1.9 0 2.6-.1.7-.1 1.1-.2 1.5-.3v-12z"/></defs><clipPath id="SVGID_56_"><use xlink:href="#SVGID_55_" overflow="visible"/></clipPath><g clip-path="url(#SVGID_56_)"><defs><path id="SVGID_57_" d="M8.2 7.5h304v65H8.2z"/></defs><clipPath id="SVGID_58_"><use xlink:href="#SVGID_57_" overflow="visible"/></clipPath><path clip-path="url(#SVGID_58_)" fill="#414042" d="M227.7 15.8h24.6V52h-24.6z"/></g></g><g class="st7"><defs><path id="SVGID_59_" d="M256.9 44.3c.5-1 .9-2 1.4-3.3.5-1.2 1-2.5 1.4-3.8.5-1.3.9-2.6 1.3-4 .4-1.3.7-2.6 1-3.8h2.2c-.4 1.6-.8 3.1-1.3 4.7l-1.5 4.5c-.5 1.5-1.1 2.9-1.7 4.2-.6 1.4-1.2 2.6-1.7 3.8h-2c-.6-1.2-1.2-2.5-1.7-3.8-.6-1.4-1.1-2.8-1.7-4.2-.5-1.5-1.1-3-1.5-4.5-.5-1.5-.9-3.1-1.3-4.7h2.3c.3 1.2.6 2.4 1 3.8.4 1.3.8 2.7 1.3 4 .5 1.3.9 2.6 1.4 3.8.2 1.2.7 2.3 1.1 3.3"/></defs><clipPath id="SVGID_60_"><use xlink:href="#SVGID_59_" overflow="visible"/></clipPath><g clip-path="url(#SVGID_60_)"><defs><path id="SVGID_61_" d="M8.2 7.5h304v65H8.2z"/></defs><clipPath id="SVGID_62_"><use xlink:href="#SVGID_61_" overflow="visible"/></clipPath><path clip-path="url(#SVGID_62_)" fill="#414042" d="M244.6 24.4h24.6v27.2h-24.6z"/></g></g><g class="st7"><defs><path id="SVGID_63_" d="M270.3 24.2c0 .5-.2.9-.5 1.2-.3.3-.7.4-1.1.4-.4 0-.8-.1-1.1-.4-.3-.3-.5-.7-.5-1.2s.2-.9.5-1.2c.3-.3.7-.4 1.1-.4.4 0 .8.1 1.1.4.3.3.5.7.5 1.2zm-2.7 22.4h2.2V29.4h-2.2v17.2z"/></defs><clipPath id="SVGID_64_"><use xlink:href="#SVGID_63_" overflow="visible"/></clipPath><g clip-path="url(#SVGID_64_)"><defs><path id="SVGID_65_" d="M8.2 7.5h304v65H8.2z"/></defs><clipPath id="SVGID_66_"><use xlink:href="#SVGID_65_" overflow="visible"/></clipPath><path clip-path="url(#SVGID_66_)" fill="#414042" d="M262.1 17.6h13.2v34h-13.2z"/></g></g><g class="st7"><defs><path id="SVGID_67_" d="M281.3 47c-1.3 0-2.5-.2-3.5-.6-1-.4-1.9-1-2.5-1.8-.7-.8-1.2-1.7-1.5-2.8-.4-1.1-.5-2.3-.5-3.6 0-1.4.2-2.6.5-3.7.4-1.1.9-2.1 1.6-2.9.7-.8 1.5-1.4 2.5-1.8 1-.4 2.1-.6 3.3-.6.9 0 1.8.1 2.6.2.8.2 1.4.4 1.9.6l-.6 1.9c-.4-.2-.9-.4-1.5-.5-.6-.1-1.3-.2-2.2-.2-1.9 0-3.3.6-4.3 1.8-1 1.2-1.5 3-1.5 5.2 0 1 .1 2 .3 2.8.2.9.6 1.6 1.1 2.2.5.6 1.1 1.1 1.9 1.4.8.3 1.7.5 2.9.5.9 0 1.7-.1 2.3-.3.6-.2 1.1-.4 1.4-.5l.5 1.9c-.4.2-1 .4-1.9.6-1 .1-1.9.2-2.8.2"/></defs><clipPath id="SVGID_68_"><use xlink:href="#SVGID_67_" overflow="visible"/></clipPath><g clip-path="url(#SVGID_68_)"><defs><path id="SVGID_69_" d="M8.2 7.5h304v65H8.2z"/></defs><clipPath id="SVGID_70_"><use xlink:href="#SVGID_69_" overflow="visible"/></clipPath><path clip-path="url(#SVGID_70_)" fill="#414042" d="M268.2 24h22.6v27.9h-22.6z"/></g></g><g class="st7"><defs><path id="SVGID_71_" d="M288.4 38c0-1.5.2-2.8.6-3.9.4-1.1 1-2.1 1.7-2.8.7-.8 1.5-1.3 2.4-1.7.9-.4 1.8-.5 2.8-.5 2.1 0 3.8.7 5 2.1 1.2 1.4 1.9 3.5 1.9 6.3v1h-12c.1 2.1.6 3.7 1.6 4.8 1 1.1 2.5 1.7 4.6 1.7 1.2 0 2.1-.1 2.8-.3.7-.2 1.2-.4 1.5-.6l.4 1.9c-.3.2-.9.4-1.7.6-.8.2-1.8.4-3 .4-1.5 0-2.8-.2-3.8-.7-1.1-.4-1.9-1.1-2.6-1.9-.7-.8-1.2-1.7-1.5-2.8-.5-1.1-.7-2.3-.7-3.6zm12.2-1.4c0-1.8-.5-3.2-1.3-4.2s-1.9-1.5-3.4-1.5c-.8 0-1.5.2-2.1.5-.6.3-1.1.7-1.6 1.2s-.8 1.1-1.1 1.8c-.3.7-.4 1.4-.4 2.2h9.9z"/></defs><clipPath id="SVGID_72_"><use xlink:href="#SVGID_71_" overflow="visible"/></clipPath><g clip-path="url(#SVGID_72_)"><defs><path id="SVGID_73_" d="M8.2 7.5h304v65H8.2z"/></defs><clipPath id="SVGID_74_"><use xlink:href="#SVGID_73_" overflow="visible"/></clipPath><path clip-path="url(#SVGID_74_)" fill="#414042" d="M283.4 24h24.4v27.9h-24.4z"/></g></g><g class="st7"><defs><path id="SVGID_75_" d="M311.8 44.3c0 .8-.3 1.5-.8 2.1-.5.6-1.2.9-2.2.9s-1.6-.3-2.2-.9c-.5-.6-.8-1.3-.8-2.1s.3-1.5.8-2.1c.5-.6 1.2-.9 2.2-.9s1.6.3 2.2.9c.5.6.8 1.3.8 2.1"/></defs><clipPath id="SVGID_76_"><use xlink:href="#SVGID_75_" overflow="visible"/></clipPath><g clip-path="url(#SVGID_76_)"><defs><path id="SVGID_77_" d="M8.2 7.5h304v65H8.2z"/></defs><clipPath id="SVGID_78_"><use xlink:href="#SVGID_77_" overflow="visible"/></clipPath><path clip-path="url(#SVGID_78_)" fill="#5d9288" d="M300.9 36.4h15.9v15.9h-15.9z"/></g></g></g></g></svg>