<svg xmlns="http://www.w3.org/2000/svg" xmlns:xlink="http://www.w3.org/1999/xlink" viewBox="0 0 42 48"><defs><path id="a" d="M442-1540.6h20.8v24.6H442z"/></defs><clipPath id="b"><use xlink:href="#a" overflow="visible"/></clipPath><g clip-path="url(#b)"><defs><path id="c" d="M-697-1572H743v3399H-697z"/></defs><clipPath id="d"><use xlink:href="#c" overflow="visible"/></clipPath><g clip-path="url(#d)"><defs><path id="e" d="M442-1541h21v25h-21z"/></defs><clipPath id="f"><use xlink:href="#e" overflow="visible"/></clipPath><g clip-path="url(#f)"><defs><path id="g" d="M457.4-1516.1h-.6c-9.2-1.8-15.6-10.3-14.8-19.7.1-1.3.7-2.5 1.8-3.3l1.7-1.3c.4-.3.9-.2 1.2.2l4.1 5.4c.3.4.2 1-.2 1.3l-2.5 2s-.1.1 0 .1v.3c.4 3.6 2.8 6.6 6.1 7.8h.1l2.5-2c.4-.3.9-.2 1.2.2l4.4 5.7c.3.4.2.9-.2 1.3l-1.7 1.3c-.7.6-1.9.9-3.1.7"/></defs><clipPath id="h"><use xlink:href="#g" overflow="visible"/></clipPath><g clip-path="url(#h)"><defs><path id="i" d="M442-1541h21v25h-21z"/></defs><clipPath id="j"><use xlink:href="#i" overflow="visible"/></clipPath><path clip-path="url(#j)" fill="#d9f4ef" d="M437-1545.6h30.8v34.6H437z"/></g></g></g></g><defs><path id="k" d="M446.9-1540.7h20.8v24.6h-20.8z"/></defs><clipPath id="l"><use xlink:href="#k" overflow="visible"/></clipPath><g clip-path="url(#l)"><defs><path id="m" d="M-697-1572H743v3399H-697z"/></defs><clipPath id="n"><use xlink:href="#m" overflow="visible"/></clipPath><g clip-path="url(#n)"><defs><path id="o" d="M446-1541h22v25h-22z"/></defs><clipPath id="p"><use xlink:href="#o" overflow="visible"/></clipPath><g clip-path="url(#p)"><defs><path id="q" d="M462.3-1516.1h-.6c-9.2-1.8-15.6-10.3-14.8-19.7.1-1.3.7-2.5 1.8-3.3l1.7-1.3c.4-.3.9-.2 1.2.2l4.1 5.4c.3.4.2 1-.2 1.3l-2.5 2s-.1.1 0 .1v.3c.4 3.6 2.8 6.6 6.1 7.8h.1l2.5-2c.4-.3.9-.2 1.2.2l4.4 5.7c.3.4.2 1-.2 1.3l-1.7 1.3c-.6.5-1.9.8-3.1.7zm-11.5-22.5l-1 .8c-.6.5-1 1.2-1.1 2-.7 8.5 5.1 16.2 13.4 17.8h.3c.8.2 1.6 0 2.3-.5l1-.7-3.3-4.3-1.8 1.4c-.5.4-1.2.5-1.8.3-4-1.5-6.8-5.1-7.3-9.3v-.3c-.1-.7.2-1.3.7-1.7l1.8-1.4-3.2-4.1z"/></defs><clipPath id="r"><use xlink:href="#q" overflow="visible"/></clipPath><g clip-path="url(#r)"><defs><path id="s" d="M446-1541h22v25h-22z"/></defs><clipPath id="t"><use xlink:href="#s" overflow="visible"/></clipPath><path clip-path="url(#t)" fill="#414042" d="M441.9-1545.7h30.8v34.6h-30.8z"/></g></g></g></g><defs><path id="u" d="M8.1 11.7h20.8v24.6H8.1z"/></defs><clipPath id="v"><use xlink:href="#u" overflow="visible"/></clipPath><g clip-path="url(#v)"><defs><path id="w" d="M-1130.9-19.6h1440v3399h-1440z"/></defs><clipPath id="x"><use xlink:href="#w" overflow="visible"/></clipPath><g clip-path="url(#x)"><defs><path id="y" d="M8.1 11.4h21v25h-21z"/></defs><clipPath id="z"><use xlink:href="#y" overflow="visible"/></clipPath><g clip-path="url(#z)"><defs><path id="A" d="M23.5 36.3h-.6C13.8 34.4 7.4 25.9 8.2 16.5c.1-1.3.7-2.5 1.8-3.3l1.7-1.3c.4-.3.9-.2 1.2.2l4.1 5.4c.3.4.2 1-.2 1.3l-2.5 2s-.1.1 0 .1v.3c.4 3.6 2.8 6.6 6.1 7.8h.1l2.5-2c.4-.3.9-.2 1.2.2l4.4 5.7c.3.4.2.9-.2 1.3l-1.7 1.3c-.7.6-2 1-3.2.8"/></defs><clipPath id="B"><use xlink:href="#A" overflow="visible"/></clipPath><g clip-path="url(#B)"><defs><path id="C" d="M8.1 11.4h21v25h-21z"/></defs><clipPath id="D"><use xlink:href="#C" overflow="visible"/></clipPath><path clip-path="url(#D)" fill="#d9f4ef" d="M3.1 6.7h30.8v34.6H3.1z"/></g></g></g></g><defs><path id="E" d="M13.1 11.7h20.8v24.6H13.1z"/></defs><clipPath id="F"><use xlink:href="#E" overflow="visible"/></clipPath><g clip-path="url(#F)"><defs><path id="G" d="M-1130.9-19.6h1440v3399h-1440z"/></defs><clipPath id="H"><use xlink:href="#G" overflow="visible"/></clipPath><g clip-path="url(#H)"><defs><path id="I" d="M12.1 11.4h22v25h-22z"/></defs><clipPath id="J"><use xlink:href="#I" overflow="visible"/></clipPath><g clip-path="url(#J)"><defs><path id="K" d="M28.5 36.2h-.6c-9.2-1.8-15.6-10.3-14.8-19.7.1-1.3.7-2.5 1.8-3.3l1.7-1.3c.4-.3.9-.2 1.2.2l4.1 5.4c.3.4.2 1-.2 1.3l-2.5 2s-.1.1 0 .1v.3c.4 3.6 2.8 6.6 6.1 7.8h.1l2.5-2c.4-.3.9-.2 1.2.2l4.4 5.7c.3.4.2 1-.2 1.3l-1.7 1.3c-.7.6-1.9.9-3.1.7zM17 13.8l-1 .8c-.6.5-1 1.2-1.1 2-.7 8.5 5.1 16.2 13.4 17.8h.3c.8.2 1.6 0 2.3-.5l1-.7-3.3-4.3-1.8 1.4c-.5.4-1.2.5-1.8.3-4-1.5-6.8-5.1-7.3-9.3V21c-.1-.7.2-1.3.7-1.7l1.8-1.4-3.2-4.1z"/></defs><clipPath id="L"><use xlink:href="#K" overflow="visible"/></clipPath><g clip-path="url(#L)"><defs><path id="M" d="M12.1 11.4h22v25h-22z"/></defs><clipPath id="N"><use xlink:href="#M" overflow="visible"/></clipPath><path clip-path="url(#N)" fill="#414042" d="M8.1 6.7h30.8v34.6H8.1z"/></g></g></g></g></svg>